<?xml version="1.0" standalone="no"?><!-- Generator: Gravit.io --><svg xmlns="http://www.w3.org/2000/svg" xmlns:xlink="http://www.w3.org/1999/xlink" style="isolation:isolate" viewBox="0 0 450.75 120.21" width="450.75" height="120.21"><path d=" M 268.482 11.826000000000008 Q 273.666 11.826000000000008 276.744 14.174999999999997 Q 279.822 16.524 279.822 20.412000000000006 Q 279.822 25.92 275.934 28.998000000000005 Q 272.046 32.07600000000001 265.728 32.07600000000001 Q 260.706 32.07600000000001 257.62800000000004 29.727000000000004 Q 254.55 27.378 254.55 23.49000000000001 Q 254.55 18.305999999999997 258.519 15.066000000000003 Q 262.488 11.826000000000008 268.482 11.826000000000008 Z  M 278.04 108.54 Q 271.23600000000005 113.88600000000001 265.161 116.883 Q 259.086 119.88000000000001 254.55 119.88000000000001 Q 250.824 119.88000000000001 248.71800000000002 118.01700000000001 Q 246.61200000000002 116.15400000000001 246.61200000000002 112.42800000000001 Q 246.61200000000002 109.67399999999999 247.58400000000003 103.11300000000001 Q 248.556 96.552 248.88000000000002 94.44600000000001 L 250.824 82.134 Q 252.76800000000003 67.554 252.76800000000003 62.20800000000001 Q 252.76800000000003 58.158 247.90800000000002 58.158 Q 246.61200000000002 58.158 245.31600000000003 58.48200000000001 L 244.50600000000003 52.650000000000006 Q 257.952 48.438 268.644 48.438 Q 271.884 48.438 273.58500000000004 49.32900000000001 Q 275.286 50.22 275.286 53.13600000000001 Q 275.286 54.59400000000001 273.34200000000004 64.31400000000001 Q 270.588 78.408 270.10200000000003 81.00000000000001 Q 267.51000000000005 94.932 267.51000000000005 101.736 Q 267.51000000000005 106.11 270.264 106.11 Q 272.85600000000005 106.11 276.096 104.004 L 278.04 108.54 Z  M 374.358 4.6980000000000075 Q 374.358 6.480000000000004 371.766 20.897999999999996 L 370.79400000000004 26.406000000000006 Q 366.42 53.784000000000006 363.585 73.143 Q 360.75 92.50200000000001 360.426 101.736 Q 360.426 103.35600000000001 361.15500000000003 104.73300000000002 Q 361.884 106.11 363.504 106.11 Q 365.934 106.11 368.68800000000005 104.32800000000002 L 370.632 108.70200000000001 Q 364.476 114.04800000000002 358.077 116.96400000000001 Q 351.678 119.88000000000001 346.98 119.88000000000001 Q 343.254 119.88000000000001 341.229 117.855 Q 339.204 115.83 339.204 112.266 Q 339.204 102.87000000000002 341.31 89.91000000000001 Q 335.478 105.462 327.135 112.671 Q 318.79200000000003 119.88000000000001 310.53000000000003 119.88000000000001 Q 303.564 119.88000000000001 298.866 114.372 Q 294.168 108.86399999999999 294.168 99.792 Q 294.168 86.83200000000001 299.514 74.763 Q 304.86 62.694 314.094 55.242000000000004 Q 323.32800000000003 47.790000000000006 334.344 47.790000000000006 Q 338.718 47.790000000000006 342.201 49.572 Q 345.684 51.354 347.142 54.59400000000001 Q 349.086 41.47200000000001 350.54400000000004 29.48400000000001 Q 352.002 17.495999999999995 352.002 13.932000000000002 Q 352.002 10.043999999999997 346.494 10.043999999999997 Q 344.064 10.043999999999997 342.606 10.367999999999995 L 341.796 5.1839999999999975 Q 355.242 0 367.23 0 Q 370.956 0 372.657 0.9720000000000084 Q 374.358 1.9440000000000026 374.358 4.6980000000000075 Z  M 321.384 107.24400000000001 Q 325.11 107.24400000000001 330.78000000000003 99.144 Q 336.45 91.044 340.743 80.19000000000001 Q 345.036 69.336 345.036 61.884 Q 345.036 57.995999999999995 342.687 55.89 Q 340.338 53.784000000000006 336.93600000000004 53.784000000000006 Q 331.104 53.784000000000006 326.244 60.58800000000001 Q 321.384 67.39200000000001 318.306 78.73200000000001 Q 315.714 88.29 315.714 96.22800000000001 Q 315.714 101.574 317.253 104.409 Q 318.79200000000003 107.24400000000001 321.384 107.24400000000001 Z  M 450.75 63.018 Q 450.75 68.688 446.376 73.953 Q 442.002 79.218 432.525 83.187 Q 423.048 87.156 408.468 88.614 L 408.468 91.044 Q 408.468 99.63000000000001 411.789 103.92300000000002 Q 415.11 108.216 420.942 108.216 Q 425.478 108.216 430.662 106.11 Q 435.846 104.004 440.706 100.116 L 444.27 103.35600000000001 Q 438.59999999999997 110.808 429.933 115.26299999999999 Q 421.266 119.718 412.194 119.718 Q 400.206 119.718 393.483 112.509 Q 386.76 105.3 386.76 92.664 Q 386.76 80.514 392.592 70.146 Q 398.424 59.778000000000006 407.98199999999997 53.784000000000006 Q 417.54 47.790000000000006 428.07 47.790000000000006 Q 438.276 47.790000000000006 444.513 52.00200000000001 Q 450.75 56.21400000000001 450.75 63.018 Z  M 427.098 53.46000000000001 Q 418.836 53.46000000000001 413.328 66.58200000000001 Q 409.926 74.52 408.954 83.268 Q 420.942 81.162 427.179 75.24900000000001 Q 433.416 69.336 433.416 60.75 Q 433.416 57.510000000000005 431.877 55.485 Q 430.338 53.46000000000001 427.098 53.46000000000001 Z  M 76.35 64.56000000000002 L 100.05 64.56000000000002 L 100.05 106.41000000000001 Q 91.64999999999999 112.56000000000002 79.425 116.385 Q 67.19999999999999 120.21 56.24999999999999 120.21 Q 40.349999999999994 120.21 27.525 113.085 Q 14.7 105.96 7.35 93.51 Q 0 81.06000000000002 0 65.61 Q 0 50.31 7.575000000000001 37.935 Q 15.149999999999999 25.560000000000002 28.425 18.510000000000005 Q 41.699999999999996 11.460000000000008 58.05 11.460000000000008 Q 69.75 11.460000000000008 81.44999999999999 15.735000000000014 Q 93.14999999999999 20.010000000000005 101.25 27.210000000000008 L 85.64999999999999 46.41000000000001 Q 79.94999999999999 41.010000000000005 72.52499999999999 37.860000000000014 Q 65.1 34.71000000000001 57.89999999999999 34.71000000000001 Q 49.49999999999999 34.71000000000001 42.74999999999999 38.760000000000005 Q 35.99999999999999 42.81 32.099999999999994 49.860000000000014 Q 28.2 56.91000000000001 28.2 65.61 Q 28.2 74.46000000000001 32.099999999999994 81.58500000000001 Q 35.99999999999999 88.71000000000001 42.9 92.76 Q 49.8 96.81 58.199999999999996 96.81 Q 66.14999999999999 96.81 76.35 91.71000000000001 L 76.35 64.56000000000002 Z  M 152.85000000000002 74.91000000000001 Q 152.85000000000002 84.81000000000002 158.70000000000002 90.81 Q 164.55 96.81 173.55 96.81 Q 182.4 96.81 187.875 90.885 Q 193.35000000000002 84.96000000000001 193.35000000000002 74.91000000000001 L 193.35000000000002 13.110000000000014 L 220.8 13.110000000000014 L 220.8 74.91000000000001 Q 220.8 88.56 215.025 98.83500000000001 Q 209.25 109.11 198.525 114.66000000000001 Q 187.8 120.21 173.4 120.21 Q 159 120.21 148.125 114.66000000000001 Q 137.25 109.11 131.32500000000002 98.83500000000001 Q 125.39999999999999 88.56 125.39999999999999 74.91000000000001 L 125.39999999999999 13.110000000000014 L 152.85000000000002 13.110000000000014 L 152.85000000000002 74.91000000000001 Z " fill-rule="evenodd" fill="rgb(0,113,214)"/><path d=" M 221.72953667953652 56.07897876447877 L 221.54999999999984 56.07897876447877 L 221.54999999999984 56.258515444015444 L 221.37046332046316 56.258515444015444 L 221.37046332046316 56.258515444015444 L 221.37046332046316 56.438052123552126 L 221.37046332046316 56.438052123552126 L 221.37046332046316 56.438052123552126 L 221.19092664092648 56.438052123552126 L 221.19092664092648 56.438052123552126 L 221.19092664092648 56.61758880308881 L 221.0113899613898 56.61758880308881 L 221.0113899613898 56.61758880308881 L 221.0113899613898 56.79712548262549 L 220.6523166023165 56.79712548262549 L 220.4727799227798 56.79712548262549 L 220.4727799227798 56.61758880308881 L 220.6523166023165 56.438052123552126 L 220.6523166023165 56.258515444015444 L 220.6523166023165 56.07897876447877 L 220.8318532818531 56.07897876447877 L 220.8318532818531 56.07897876447877 L 220.8318532818531 55.89944208494209 L 221.0113899613898 55.89944208494209 L 221.0113899613898 55.89944208494209 L 221.0113899613898 55.719905405405406 L 221.0113899613898 55.719905405405406 L 221.0113899613898 55.719905405405406 L 221.19092664092648 55.54036872586873 L 221.37046332046316 55.36083204633205 L 221.37046332046316 55.36083204633205 L 221.37046332046316 55.36083204633205 L 221.37046332046316 55.18129536679537 Q 221.37046332046316 55.18129536679537 221.9090733590732 54.82222200772201 Q 222.26814671814657 54.28361196911197 223.70444015444002 53.565465250965254 Q 225.14073359073348 52.847318532818534 226.75656370656355 52.847318532818534 Q 228.55193050193037 52.847318532818534 229.62915057915046 53.38592857142857 Q 230.88590733590718 53.92453861003861 232.32220077220063 55.00175868725869 Q 233.5789575289574 56.07897876447877 234.83571428571418 57.694808880308884 Q 236.0924710424709 59.310638996139 236.63108108108094 61.106005791505794 Q 237.16969111969098 63.08090926640927 237.16969111969098 65.05581274131275 Q 237.16969111969098 67.2102528957529 236.63108108108094 69.0056196911197 Q 236.0924710424709 70.98052316602318 234.6561776061775 72.95542664092665 Q 233.5789575289574 74.93033011583012 232.14266409266395 76.18708687258689 Q 230.7063706563705 77.44384362934363 228.3723938223937 78.70060038610039 Q 226.03841698841683 80.13689382239383 222.9862934362933 80.85504054054056 Q 219.93416988416976 81.93226061776062 216.34343629343616 82.29133397683398 Q 212.93223938223923 82.65040733590735 208.44382239382224 82.29133397683398 Q 203.77586872586858 82.29133397683398 198.74884169884155 81.2141138996139 Q 193.7218146718145 80.13689382239383 189.4129343629342 78.70060038610039 Q 185.1040540540539 77.26430694980695 181.8723938223937 75.46894015444016 Q 178.82027027027013 73.67357335907337 177.20444015444002 72.23727992277992 Q 175.4090733590732 70.8009864864865 175.04999999999984 70.62144980694981 Q 174.69092664092648 70.44191312741313 173.97277992277978 70.98052316602318 Q 173.43416988416973 71.51913320463322 171.1001930501929 73.31450000000001 Q 168.76621621621607 75.1098667953668 165.53455598455582 76.54616023166024 Q 162.3028957528956 77.98245366795368 157.81447876447862 79.4187471042471 Q 153.50559845559832 80.85504054054056 148.11949806949792 81.75272393822394 Q 142.73339768339753 82.65040733590735 139.14266409266395 82.82994401544403 Q 135.73146718146702 83.00948069498071 134.11563706563692 82.65040733590735 Q 132.49980694980678 82.65040733590735 129.0886100386099 81.75272393822394 Q 125.49787644787628 80.85504054054056 122.98436293436276 79.77782046332047 Q 120.65038610038593 78.70060038610039 119.03455598455581 77.62338030888031 Q 117.4187258687257 76.18708687258689 116.16196911196894 74.57125675675675 Q 114.7256756756755 72.77588996138996 114.00752895752878 70.62144980694981 Q 113.28938223938206 68.46700965250966 113.10984555984538 66.13303281853283 Q 112.93030888030871 63.97859266409267 113.28938223938206 62.542299227799234 Q 113.64845559845543 61.285542471042476 114.36660231660214 59.49017567567568 Q 115.44382239382222 57.694808880308884 115.98243243243226 57.156198841698846 Q 116.70057915057897 56.438052123552126 116.70057915057897 56.258515444015444 Q 116.70057915057897 56.07897876447877 117.05965250965234 55.89944208494209 Q 117.4187258687257 55.719905405405406 119.03455598455581 54.82222200772201 Q 120.65038610038593 53.92453861003861 122.6252895752894 53.92453861003861 Q 124.77972972972957 53.92453861003861 126.21602316602299 54.463148648648655 L 127.65231660231643 55.00175868725869 L 127.65231660231643 55.18129536679537 L 127.65231660231643 55.18129536679537 L 127.83185328185311 55.18129536679537 L 127.83185328185311 55.36083204633205 L 127.83185328185311 55.36083204633205 L 128.0113899613898 55.36083204633205 L 128.0113899613898 55.36083204633205 L 128.0113899613898 55.36083204633205 L 128.19092664092648 55.54036872586873 L 128.37046332046316 55.719905405405406 L 128.37046332046316 55.719905405405406 L 128.37046332046316 55.719905405405406 L 128.54999999999984 55.719905405405406 L 128.54999999999984 55.719905405405406 L 128.54999999999984 55.89944208494209 L 128.72953667953652 55.89944208494209 L 128.72953667953652 56.07897876447877 L 128.72953667953652 56.258515444015444 L 128.37046332046316 56.258515444015444 L 127.83185328185311 56.07897876447877 L 127.65231660231643 56.07897876447877 L 127.47277992277975 56.07897876447877 L 127.47277992277975 55.89944208494209 L 127.29324324324308 55.89944208494209 L 127.29324324324308 55.89944208494209 L 127.29324324324308 55.719905405405406 L 126.57509652509636 55.719905405405406 Q 126.03648648648631 55.36083204633205 124.60019305019289 55.54036872586873 Q 123.16389961389945 55.719905405405406 122.08667953667937 56.438052123552126 Q 121.18899613899596 57.33573552123553 120.47084942084925 58.59249227799228 Q 119.75270270270254 59.849249034749036 119.75270270270254 62.18322586872587 Q 119.75270270270254 64.69673938223939 120.47084942084925 65.59442277992278 Q 121.00945945945928 66.49210617760619 121.90714285714269 67.03071621621622 Q 122.80482625482608 67.56932625482625 124.4206563706562 67.56932625482625 Q 126.21602316602299 67.56932625482625 128.72953667953652 66.49210617760619 Q 131.42258687258672 65.4148861003861 135.55193050193034 63.08090926640927 Q 139.86081081081065 60.74693243243244 143.9901544401543 58.23341891891892 Q 148.2990347490346 55.719905405405406 151.35115830115814 54.28361196911197 Q 154.58281853281838 52.847318532818534 156.73725868725853 52.48824517374518 Q 159.07123552123537 51.77009845559846 161.94382239382224 51.94963513513514 Q 164.8164092664091 52.129171814671814 167.50945945945932 52.847318532818534 Q 170.2025096525095 53.92453861003861 172.177413127413 55.18129536679537 Q 174.3318532818531 56.438052123552126 174.5113899613898 56.61758880308881 Q 174.69092664092648 56.79712548262549 176.66583011582998 55.36083204633205 Q 178.64073359073345 53.92453861003861 181.33378378378364 53.2063918918919 Q 184.0268339768338 52.129171814671814 185.2835907335906 52.129171814671814 Q 186.54034749034736 51.77009845559846 189.77200772200757 51.94963513513514 Q 193.00366795366782 52.129171814671814 195.51718146718133 52.66778185328186 Q 197.85115830115814 53.2063918918919 201.2623552123551 55.00175868725869 Q 204.67355212355199 56.79712548262549 211.13687258687244 61.106005791505794 Q 217.6001930501929 65.4148861003861 219.93416988416976 66.13303281853283 Q 222.0886100386099 67.2102528957529 224.06351351351339 67.2102528957529 Q 226.03841698841683 67.2102528957529 227.47471042471028 66.49210617760619 Q 228.91100386100373 65.77395945945946 229.62915057915046 65.05581274131275 Q 230.34729729729713 64.15812934362935 230.34729729729713 62.003689189189195 Q 230.34729729729713 59.849249034749036 229.62915057915046 58.59249227799228 Q 228.91100386100373 57.33573552123553 228.01332046332033 56.438052123552126 Q 227.11563706563692 55.719905405405406 226.3974903474902 55.36083204633205 Q 225.49980694980678 55.00175868725869 224.24305019305007 55.00175868725869 Q 223.16583011582998 55.00175868725869 222.44768339768325 55.54036872586873 Q 221.9090733590732 56.07897876447877 221.72953667953652 56.07897876447877 Z " fill-rule="evenodd" fill="rgb(214,0,116)"/></svg>