<?xml version="1.0" standalone="no"?><!-- Generator: Gravit.io --><svg xmlns="http://www.w3.org/2000/svg" xmlns:xlink="http://www.w3.org/1999/xlink" style="isolation:isolate" viewBox="0 2.7550170845299805e-14 1455.5326446420343 229.1594218876297" width="1455.5326446420343" height="229.1594218876297"><path d=" M 1316.5508854967911 133.15942188762938 C 1358.9554175025019 93.33756323987382 1363.7310962969207 101.56851497789694 1417.550885496791 107.1594218876296 C 1378.0140495288451 144.41737467367057 1345.877404757015 -5.553634261536672 1454.5508854967911 0.15942188762949172 C 1454.5508854967911 13.905764632251248 1452.5508858669907 195.11776321640718 1452.5508858669907 229.15942188762972 C 1470.8920723904282 229.15942188762972 78.94174737822128 229.15942188762972 4.550885866990812 229.15942188762972 C 4.550885866990812 101.4518139113186 4.3 48.757302030116534 4.3 55.64184579967991 C 55.435753631591766 55.64184579967991 92.56995898311956 78.017469092606 99.55088549679144 121.15942188762938 C 104.17240649288519 120.79703281100183 209.2200448025377 98.32813888687883 236.07513208281114 145.5058499397187 C 245.23982259692178 138.12607456924297 250.07609301632266 133.1594218876296 271.5508854967914 133.1594218876296 C 303.39184612227535 140.16649667669435 306.9625844302565 148.4982193953167 308.5508854967914 168.99812140541962 C 330.0058110339008 155.86809469697346 368.4234440905414 145.5058499397187 396.5508854967914 145.5058499397187 C 447.8106511217914 145.5058499397187 465.4353515890909 150.02853559584673 499.75985737838374 186.0142272637695 C 548.5825432703123 162.7811726272414 562.8654965022367 199.67880180971292 569.7133614529282 210.56911686253932 C 590.2411568634253 187.77634078310916 635.8920528395471 206.97995556790602 633.3341166080218 222.65420711900958 C 657.2718607486468 186.1595902553354 673.0364205349595 146.6500488931365 729.1241280544907 145.5058499397187 C 829.6506590031652 141.69681287722415 848.6945966457312 191.6871491889599 847.580536440098 215.78977208217964 C 845.9740416396581 162.27106621357598 948.8733956326157 145.5058499397187 1000.038495730272 145.5058499397187 C 1068.8361641873032 143.99807374876605 1107.8281842249403 178.93451165082138 1116.1175362576157 203.6249104417186 C 1124.9510323513657 177.73997639688582 1152.3483712185532 158.85594102186383 1184.7380196560532 158.85594102186383 C 1238.7552555175814 102.7587610805574 1316.5508854967911 139.13765349107894 1316.5508854967911 133.15942188762938 Z " fill="rgb(174,171,183)"/><path d=" M 1284.25848411691 191.21252471689968 C 1283.1389945844342 187.11320389695254 1282.5590504935403 182.8985118574427 1282.55905049354 178.59911060357967 C 1282.5590504935417 139.09515426382416 1330.3291975357495 76.53165981239044 1392.0590824014494 74.15942188762972 C 1391.2752569886811 71.55754492662425 1416.7447066267928 11 1454.5508854967911 11 C 1455.8498785923566 31.17737433505249 1455.8698785923566 214.9890449197527 1454.5508854967911 229.15942188762972 C 1472.8921102202166 229.15942188762972 74.390863349441 229.15942188762972 0 229.15942188762972 C 0 137.31569952872508 0 48.20826590055367 0 53.15942188762972 C 51.13575522282113 53.1594218876312 64.93109753456586 81.14477336026312 71.91202892327 112.17125468394977 C 76.53354268994491 111.910663788281 81.21388224012489 111.78198998101948 85.94094950646 111.7819899810197 C 149.53341731935984 111.78198998101493 204.66915740885185 135.06922596607637 231.52424093764 168.99812140541974 C 245.6247889617595 160.12807937478567 265.08426520857387 154.6458032105868 286.55905049354 154.64580321058975 C 319.65228892673946 154.64580321058747 347.9596393835137 167.66492786142146 359.2824315666 186.01422726376973 C 380.73737036618616 176.5714998951015 406.8295381173703 171.03490826895268 434.95698151147 171.03490826894972 C 486.216721683086 171.03490826895177 530.716947144842 189.42292006954517 552.75078172572 216.2955947302097 C 556.8137590649757 215.96244935400125 560.9563905840366 215.78977208218237 565.16249903424 215.78977208217964 C 581.1003164528937 215.78977208218055 596.1267261909983 218.26908840952694 609.31773352361 222.65420711900958 C 633.2554940714655 196.40834372261793 668.4855082936155 169.8209542860402 724.5732416906576 168.99812140541974 C 778.5211095742536 168.2066813374114 801.4236275597669 181.6483608475471 828 205.54277513147974 C 829.5206951162631 180.12475775348184 906.3388065811623 134.89540585238763 972 191.21252471689968 C 1009.2478566179796 155.12958959761397 1077.091884469621 170.6027889321988 1079 203.6249104417186 C 1087.833549196988 185.00917965147175 1122.3212363707153 156.31983570027433 1165 158.85594102186383 C 1217.540924583545 156.31983570027433 1234.627566152024 189.67989410062455 1245.73778975713 205.54277513147974 C 1257.1694014805312 199.5476866340066 1270.155874079027 194.6810722920003 1284.25848411691 191.21252471689968 Z " fill="rgb(206,204,210)"/></svg>