<?xml version="1.0" standalone="no"?><!-- Generator: Gravit.io --><svg xmlns="http://www.w3.org/2000/svg" xmlns:xlink="http://www.w3.org/1999/xlink" style="isolation:isolate" viewBox="9.5 0.00000122523353240922 355.25 138.4285153045352" width="355.25" height="138.4285153045352"><path d=" M 145.51916244457652 131.68455703449263 L 108 110.04975 L 110.81471132106144 105.71633032775156 L 148.0953754115151 127.24202089594962 L 145.51916244457652 131.68455703449263 L 145.51916244457652 131.68455703449263 Z " fill="rgb(229,53,171)"/><path d=" M 188.61634292260715 57.04308000572493 L 150.63723887222787 35.116645198225285 L 153.91189179909205 31.063403463575213 L 191.19255588954576 52.5890940317733 L 188.61634292260715 57.04308000572493 L 188.61634292260715 57.04308000572493 L 188.61634292260715 57.04308000572493 Z " fill="rgb(229,53,171)"/><path d=" M 98.4946884213906 57.02018033490771 L 95.92992528986063 52.566194360956075 L 133.16479003867985 31.063403463575213 L 136.51959181340436 35.070845856590836 L 98.4946884213906 57.02018033490771 L 98.4946884213906 57.02018033490771 L 98.4946884213906 57.02018033490771 Z " fill="rgb(229,53,171)"/><path d=" M 97.70464977819611 49.23429225704882 L 102.97157406615946 49.23429225704882 L 102.97157406615946 93.17876055531701 L 97.70464977819611 92.26277372262774 L 97.70464977819611 49.23429225704882 L 97.70464977819611 49.23429225704882 L 97.70464977819611 49.23429225704882 Z " fill="rgb(229,53,171)"/><path d=" M 184.0936579362038 49.23429225704882 L 189.36058222416722 49.23429225704882 L 189.36058222416722 93.67110347788753 L 184.0936579362038 93.05281236582226 L 184.0936579362038 49.23429225704882 L 184.0936579362038 49.23429225704882 L 184.0936579362038 49.23429225704882 Z " fill="rgb(229,53,171)"/><path d=" M 144.6489749535217 129.50908830685557 L 142.40480721343297 125.62759410333479 L 176.38791870620526 106.00257621296694 L 178.7236851295629 109.83827107485331 L 144.6489749535217 129.50908830685557 L 144.6489749535217 129.50908830685557 L 144.6489749535217 129.50908830685557 Z " fill="rgb(229,53,171)"/><path d=" M 177.3382550451204 58.29111206526409 C 174.3576708551202 53.12043553154081 176.13205838417818 46.51257105791143 181.30187399895408 43.53049385580971 C 186.47168961372998 40.54841665370802 193.0800662017757 42.32089595561797 196.0636361673091 47.48985022034526 C 199.04720613284246 52.65880448507255 197.2766352058843 59.267692636474436 192.10854272223503 62.25275511664523 C 186.93445285330853 65.2267139330292 180.32958826105892 63.45517660828625 177.3382550451204 58.29111206526409 Z " fill="rgb(229,53,171)"/><path d=" M 91.04528745707881 58.29111099243164 C 88.06469663676631 53.12043380737305 89.83909544047725 46.512569427490234 95.00891050395381 43.530494689941406 C 100.17872556743038 40.54841613769531 106.78709348735225 42.32089614868164 109.77065977153194 47.48984909057617 C 112.75424131450069 52.65880584716797 110.98367246684444 59.26769256591797 105.81556638774288 62.25275421142578 C 100.64147886332881 65.22671508789062 94.03662046489131 63.455177307128906 91.04528745707881 58.29111099243164 Z " fill="rgb(229,53,171)"/><path d=" M 143.5039914126601 138.42851044356425 C 137.53454181952694 138.42851044356425 132.69534678692662 133.58931541096385 132.69534678692662 127.61986581783069 C 132.69534678692662 121.65041622469752 137.53454181952694 116.81122119209721 143.5039914126601 116.81122119209721 C 149.4734410057933 116.81122119209721 154.3126360383936 121.65041622469752 154.3126360383936 127.61986581783069 C 154.31567854751546 130.48742824278608 153.17789095698976 133.23841740720079 151.1502169795115 135.2660913846797 C 149.12254300203324 137.2937653621586 146.37155383761896 138.4315529526851 143.50399141266183 138.42851044356425" fill="rgb(229,53,171)"/><path d=" M 107.25381250898185 96.04121940747103 L 102.97157406615946 93.17876055531701 L 136.51959181340436 35.070845856590836 L 140.54993387723718 38.35694861886361 L 107.25381250898185 96.04121940747103 L 107.25381250898185 96.04121940747103 L 107.25381250898185 96.04121940747103 Z " fill="rgb(70,70,70)"/><path d=" M 109.80712580510321 100.01431229426078 L 176.85736195795852 100.01431229426078 L 174.59029454705257 105.28123658222415 L 110 105.61225 L 109.80712580510321 100.01431229426078 L 109.80712580510321 100.01431229426078 Z " fill="rgb(70,70,70)"/><path d=" M 179.21602805213342 94.8962358666094 L 146.12600372123316 37.589809646486344 L 150.63723887222787 35.116645198225285 L 184.0936579362038 93.05281236582226 L 179.21602805213342 94.8962358666094 L 179.21602805213342 94.8962358666094 L 179.21602805213342 94.8962358666094 Z " fill="rgb(70,70,70)"/><path d=" M 196.04728610279892 108.12079576356089 C 193.06222362262812 113.2888882472102 186.45333547122624 115.05945917416835 181.28438120649895 112.07588920863495 C 176.11542694177163 109.09231924310154 174.3429476398617 102.48394265505584 177.3250248419634 97.31412704027994 C 180.30710204406512 92.14431142550404 186.91496651769447 90.3699238964461 192.08564305141775 93.35050808644627 C 197.2551164889959 96.33769371734411 199.02800339450994 102.9475899835669 196.04728610279892 108.12079576356089 Z " fill="none" vector-effect="non-scaling-stroke" stroke-width="3.4349506225848003" stroke="rgb(70,70,70)" stroke-opacity="10000" stroke-linejoin="miter" stroke-linecap="butt" stroke-miterlimit="10"/><path d=" M 152.86595449703822 33.3912444296206 C 149.8808928515304 38.5593352499331 143.2720061327804 40.32990409758935 138.10304556149134 37.34633781340966 C 132.93410024899134 34.36276389983544 131.16160879391322 27.754388350519037 134.14369497555384 22.584573287042474 C 137.1257658984054 17.41475822356591 143.73363027828822 15.640374678644037 148.90431509274134 18.620957869562005 C 154.07377920406947 21.608140486749505 155.84666738766322 28.21804191497216 152.86595449703822 33.3912444296206 Z " fill="none" vector-effect="non-scaling-stroke" stroke-width="3.4349506225848003" stroke="rgb(70,70,70)" stroke-opacity="10000" stroke-linejoin="miter" stroke-linecap="butt" stroke-miterlimit="10"/><path d=" M 109.69977890080064 109.3952518720136 C 106.71471725529283 114.5633426923261 100.10583053654283 116.33391153998235 94.93686996525376 113.35034525580267 C 89.76792465275376 110.36677134222845 87.99543319767564 103.75839579291204 90.97751937931626 98.58858072943548 C 93.95959030216783 93.41876566595892 100.56745468205064 91.64438212103704 105.73813949650376 94.62496531195501 C 110.90760360783189 97.61214792914251 112.68049179142564 104.22204935736517 109.69977890080064 109.3952518720136 Z " fill="none" vector-effect="non-scaling-stroke" stroke-width="3.4349506225848003" stroke="rgb(70,70,70)" stroke-opacity="10000" stroke-linejoin="miter" stroke-linecap="butt" stroke-miterlimit="10"/><path d=" M 326.625 41.924753 Q 318 41.924753 310.96875 44.112253 Q 303.9375 46.299753 298.96875 50.706003 Q 294 55.112253 291.3125 61.737253 Q 288.625 68.36225 288.625 77.23725 Q 288.625 86.36225 291.375 93.0185 Q 294.125 99.67475 299.25 104.04975 Q 304.375 108.42475 311.71875 110.5185 Q 319.0625 112.61225 328.1875 112.61225 Q 337.3125 112.61225 344.15625 110.79975 Q 351 108.98725 355.59375 105.61225 Q 360.1875 102.23725 362.46875 97.3935 Q 364.75 92.54975 364.75 86.48725 L 340.0625 86.48725 Q 340.0625 88.54975 339.40625 90.331 Q 338.75 92.11225 337.28125 93.456 Q 335.8125 94.79975 333.4375 95.54975 Q 331.0625 96.29975 327.625 96.29975 Q 320.375 96.29975 317.21875 92.456 Q 314.0625 88.61225 314.0625 81.61225 L 364.75 81.61225 L 364.75 77.23725 Q 364.75 68.11225 362.21875 61.456003 Q 359.6875 54.799753 354.8125 50.456003 Q 349.9375 46.112253 342.84375 44.018503 Q 335.75 41.924753 326.625 41.924753 Z  M 327.625 58.174753 Q 333.0625 58.174753 336.0625 61.206003 Q 339.0625 64.23725300000001 339.0625 69.54975 L 314.1875 69.54975 Q 314.875 64.29975300000001 318.03125 61.237253 Q 321.1875 58.174753 327.625 58.174753 Z " fill-rule="evenodd" fill="rgb(70,70,70)"/><path d=" M 230.95045 19.112253 L 205.51295 19.112253 L 205.51295 112.04974999999999 L 230.95045 112.04974999999999 L 230.95045 97.48724999999999 L 239.82545 88.86224999999999 L 254.01295 112.04974999999999 L 282.95045 112.04974999999999 L 257.32545 71.73724999999999 L 282.32545 44.48725299999999 L 252.63795 44.48725299999999 L 230.95045 70.29974999999999 L 230.95045 19.112253 Z " fill="rgb(70,70,70)"/><path d=" M 37.75 110.04975 L 37.75 78.42475 L 74.625 78.42475 L 74.625 58.237253 L 37.75 58.237253 L 37.75 43.112253 L 80.625 43.112253 L 80.625 21.987253000000003 L 9.5 21.987253000000003 L 9.5 110.04974999999999 L 37.75 110.04975 Z " fill="rgb(70,70,70)"/></svg>