<?xml version="1.0" standalone="no"?><!-- Generator: Gravit.io --><svg xmlns="http://www.w3.org/2000/svg" xmlns:xlink="http://www.w3.org/1999/xlink" style="isolation:isolate" viewBox="410.39793526358983 -20 619.2041294728202 151.0000043035924" width="619.2041294728202" height="151.0000043035924"><path d=" M 516.4103533106288 53.72965735731454 L 549.3179352801421 53.72965735731454 L 549.3179352801421 111.83862075586428 Q 537.6544848855884 120.37793321938351 520.6800042456593 125.68896346475886 Q 503.7055236057303 131.0000043035924 488.50138461535 131.0000043035924 Q 466.42414111734803 131.0000043035924 448.6165564994702 121.10690085531651 Q 430.80896923322786 111.21379740704064 420.6034527863579 93.92689449924163 Q 410.39793526358983 76.64000218490075 410.39793526358983 55.187587332451486 Q 410.39793526358983 33.94345046076281 420.91586644704313 16.76068919170862 Q 431.4337978787805 -0.42206942898103605 449.8662111422111 -10.211034548967735 Q 468.29862705400615 -20 491.0006939008318 -20 Q 507.24620690482783 -20 523.491730502282 -14.064137798616256 Q 539.7372435062781 -8.128275928278079 550.9841379393106 1.8689658482869476 L 529.3234504028298 28.528275928278077 Q 521.4089718815924 21.030345423468226 511.0993124717953 16.656552849692858 Q 500.7896636554564 12.282757627552954 490.79241592007116 12.282757627552954 Q 479.1289708222466 12.282757627552954 469.7565570291431 17.906207492433744 Q 460.3841432360397 23.529654708949998 454.96896870355494 33.3186218152101 Q 449.55379681943475 43.10758627310567 449.55379681943475 55.187587332451486 Q 449.55379681943475 67.47586107582882 454.96896870355494 77.36896982083375 Q 460.3841432360397 87.26207326910962 469.96482971317465 92.88551518889679 Q 479.5455214870387 98.50896770214213 491.2089718815924 98.50896770214213 Q 502.2475883338643 98.50896770214213 516.4103533106288 91.42759051048893 L 516.4103533106288 53.72965735731454 Z " fill="rgb(0,113,214)"/><path d=" M 836.530357548012 128.29241174062093 L 815.2861941926781 87.88689661793326 L 814.4531246434683 87.88689661793326 L 786.9606854260653 87.88689661793326 L 786.9606854260653 128.29241174062093 L 748.8462069048278 128.29241174062093 L 748.8462069048278 -17.708965446894197 L 814.4531246434683 -17.708965446894197 Q 843.4034355719884 -17.708965446894197 859.3365474950308 -4.27517234758399 Q 875.2696594180732 9.158619696518471 875.2696594180732 33.52689449924162 Q 875.2696594180732 49.98069078072734 868.6048487813994 61.956552849692855 Q 861.9399957708929 73.9324096219293 849.2351766594525 80.59724144551946 L 879.6434440467549 128.29241174062093 L 836.530357548012 128.29241174062093 Z  M 786.9606854260653 57.47861863717266 L 814.6613920307707 57.47861863717266 Q 826.3248318318663 57.47861863717266 832.6772625745027 51.64689873662488 Q 839.0296509433067 45.81517353934803 839.0296509433067 34.77655179034704 Q 839.0296509433067 24.15448335450271 832.6772625745027 18.426897147606162 Q 826.3248318318663 12.699310940709609 814.6613920307707 12.699310940709609 L 786.9606854260653 12.699310940709609 L 786.9606854260653 57.47861863717266 Z  M 935.2531246434683 68.10068972138153 Q 935.2531246434683 81.84689873662488 943.3758493650919 90.1779332193835 Q 951.498616460548 98.50896770214213 963.995168184686 98.50896770214213 Q 976.2834525215214 98.50896770214213 983.8855299618051 90.28206691303473 Q 991.487607402089 82.05517671738548 991.487607402089 68.10068972138153 L 991.487607402089 -17.708965446894197 L 1029.60206473641 -17.708965446894197 L 1029.60206473641 68.10068972138153 Q 1029.60206473641 87.05379528834902 1021.5834525215214 101.32069395876479 Q 1013.5648403066327 115.5875820357224 998.6731076939352 123.2937931696574 Q 983.7813750812377 131.0000043035924 963.7869007973836 131.0000043035924 Q 943.7924265135293 131.0000043035924 928.6924265135294 123.2937931696574 Q 913.5924265135293 115.5875820357224 905.3655045375056 101.32069395876479 Q 897.1386249353145 87.05379528834902 897.1386249353145 68.10068972138153 L 897.1386249353145 -17.708965446894197 L 935.2531246434683 -17.708965446894197 L 935.2531246434683 68.10068972138153 Z " fill-rule="evenodd" fill="rgb(0,113,214)"/><path d=" M 624.7832311112305 68.10068972138153 Q 624.7832311112305 81.84689873662488 632.9059770197704 90.1779332193835 Q 641.0287441152266 98.50896770214213 653.5252958393645 98.50896770214213 Q 665.8135589892836 98.50896770214213 673.4156364295675 90.28206691303473 Q 681.0177138698511 82.05517671738548 681.0177138698511 68.10068972138153 L 681.0177138698511 -17.708965446894197 L 719.1321923910887 -17.708965446894197 L 719.1321923910887 68.10068972138153 Q 719.1321923910887 87.05379528834902 711.1135589892837 101.32069395876479 Q 703.094946774395 115.5875820357224 688.2032141616974 123.2937931696574 Q 673.3115027359162 131.0000043035924 653.3170072651458 131.0000043035924 Q 633.3225329812915 131.0000043035924 618.2225329812916 123.2937931696574 Q 603.1225329812916 115.5875820357224 594.8956321921842 101.32069395876479 Q 586.6687419965349 87.05379528834902 586.6687419965349 68.10068972138153 L 586.6687419965349 -17.708965446894197 L 624.7832311112305 -17.708965446894197 L 624.7832311112305 68.10068972138153 Z " fill="rgb(0,113,214)"/><path d=" M 719.5760794746465 31.08199851156651 L 719.3267942173727 31.08199851156651 L 719.3267942173727 31.3312890655693 L 719.0775089600991 31.3312890655693 L 719.0775089600991 31.3312890655693 L 719.0775089600991 31.580574322843006 L 719.0775089600991 31.580574322843006 L 719.0775089600991 31.580574322843006 L 718.8282237028253 31.580574322843006 L 718.8282237028253 31.580574322843006 L 718.8282237028253 31.82986487684579 L 718.5789384455516 31.82986487684579 L 718.5789384455516 31.82986487684579 L 718.5789384455516 32.079150134119494 L 718.0803467440878 32.079150134119494 L 717.8310614868142 32.079150134119494 L 717.8310614868142 31.82986487684579 L 718.0803467440878 31.580574322843006 L 718.0803467440878 31.3312890655693 L 718.0803467440878 31.08199851156651 L 718.3296320013616 31.08199851156651 L 718.3296320013616 31.08199851156651 L 718.3296320013616 30.832713254292806 L 718.5789384455516 30.832713254292806 L 718.5789384455516 30.832713254292806 L 718.5789384455516 30.583422700290022 L 718.5789384455516 30.583422700290022 L 718.5789384455516 30.583422700290022 L 718.8282237028253 30.334137443016317 L 719.0775089600991 30.084852185742612 L 719.0775089600991 30.084852185742612 L 719.0775089600991 30.084852185742612 L 719.0775089600991 29.83556163173983 Q 719.0775089600991 29.83556163173983 719.8253647319202 29.336985820463333 Q 720.3239352464675 28.58912475191314 722.3182384915735 27.591973129360156 Q 724.3125417366795 26.594821506807172 726.5561302390591 26.594821506807172 Q 729.0490039987126 26.594821506807172 730.5447367292711 27.342682575357372 Q 732.2897547171033 28.090548940636644 734.2840579622093 29.586276374466117 Q 736.0290759500415 31.08199851156651 737.7740939378739 33.32559231067526 Q 739.5190907387898 35.56918081305493 740.2669676975272 38.062054572708305 Q 741.0148234693484 40.80421888636447 741.0148234693484 43.54638849674971 Q 741.0148234693484 46.53783806767957 740.2669676975272 49.03071712406202 Q 739.5190907387898 51.77288143771818 737.5247874936838 54.515045751374345 Q 736.0290759500415 57.257210065030506 734.0347727049357 59.00222275613369 Q 732.0404694598296 60.747240743965946 728.7997187414388 62.49225343506912 Q 725.5589892099644 64.486551383446 721.3210974624787 65.48370300599899 Q 717.083205714993 66.97943043982846 712.0974581956864 67.47800625110494 Q 707.3609747467369 67.97658206238144 701.1288009410616 67.47800625110494 Q 694.64729950428 67.47800625110494 687.6672487398673 65.98227881727547 Q 680.6871979754546 64.486551383446 674.7042882401367 62.49225343506912 Q 668.7213785048189 60.49795018996316 664.2342015000595 58.0050711335807 Q 659.9963097525739 55.51219737392732 657.7527212501942 53.51789412882137 Q 655.2598474905408 51.5235908837154 654.7612769759934 51.27430562644169 Q 654.262706461446 51.025015072438904 653.2655442454349 51.77288143771818 Q 652.5176884736138 52.52074250626838 649.2769377552229 55.01362156265084 Q 646.0362082237484 57.50650061903329 641.5490312189891 59.50079856741017 Q 637.0618542142298 61.49510181251614 630.8296592216382 63.48940505762209 Q 624.8467494863203 65.48370300599899 617.3681282073601 66.73014518255475 Q 609.8894857414837 67.97658206238144 604.903738222177 68.22586731965515 Q 600.1672759601439 68.47515787365793 597.9236874577642 67.97658206238144 Q 595.6800989553846 67.97658206238144 590.9436155064352 66.73014518255475 Q 585.9578679871285 65.48370300599899 582.4678426049221 63.98798086889859 Q 579.2271024799895 62.49225343506912 576.9835139776098 60.996526001239644 Q 574.7399254752302 59.00222275613369 572.9949074873979 56.75863425375401 Q 571.000604242292 54.26575519737156 570.0034526197389 51.27430562644169 Q 569.0063009971859 48.28285075878274 568.7570157399123 45.0421106338501 Q 568.5077304826385 42.050661062920234 569.0063009971859 40.056357817814266 Q 569.5048821051915 38.31134512671109 570.5020337277444 35.81846607032864 Q 571.9977558648449 33.32559231067526 572.7456222301241 32.57772594539598 Q 573.7427738526771 31.580574322843006 573.7427738526771 31.3312890655693 Q 573.7427738526771 31.08199851156651 574.2413443672245 30.832713254292806 Q 574.7399254752302 30.583422700290022 576.9835139776098 29.336985820463333 Q 579.2271024799895 28.090548940636644 581.9692614969165 28.090548940636644 Q 584.9607163645755 28.090548940636644 586.9550196096815 28.838410009186845 L 588.9493122613293 29.586276374466117 L 588.9493122613293 29.83556163173983 L 588.9493122613293 29.83556163173983 L 589.198597518603 29.83556163173983 L 589.198597518603 30.084852185742612 L 589.198597518603 30.084852185742612 L 589.447903962793 30.084852185742612 L 589.447903962793 30.084852185742612 L 589.447903962793 30.084852185742612 L 589.6971892200667 30.334137443016317 L 589.9464744773404 30.583422700290022 L 589.9464744773404 30.583422700290022 L 589.9464744773404 30.583422700290022 L 590.1957597346141 30.583422700290022 L 590.1957597346141 30.583422700290022 L 590.1957597346141 30.832713254292806 L 590.4450449918878 30.832713254292806 L 590.4450449918878 31.08199851156651 L 590.4450449918878 31.3312890655693 L 589.9464744773404 31.3312890655693 L 589.198597518603 31.08199851156651 L 588.9493122613293 31.08199851156651 L 588.7000375975138 31.08199851156651 L 588.7000375975138 30.832713254292806 L 588.4507417467819 30.832713254292806 L 588.4507417467819 30.832713254292806 L 588.4507417467819 30.583422700290022 L 587.4535901242289 30.583422700290022 Q 586.7057343524077 30.084852185742612 584.7114311073018 30.334137443016317 Q 582.7171278621959 30.583422700290022 581.2214057250955 31.580574322843006 Q 579.9749582518106 32.827016499398766 578.9778066292577 34.57202919050195 Q 577.9806656001628 36.31704188160513 577.9806656001628 39.55778200653778 Q 577.9806656001628 43.04781268547321 578.9778066292577 44.2942495652999 Q 579.7256729945369 45.54068644512659 580.9721098743636 46.28855281040586 Q 582.2185573476484 47.03641387895607 584.462145850028 47.03641387895607 Q 586.9550196096815 47.03641387895607 590.4450449918878 45.54068644512659 Q 594.184366224826 44.044964308026195 599.9179695159539 40.80421888636447 Q 605.9008792512718 37.56347876143182 611.634503729316 34.073453379225455 Q 617.6174134646338 30.583422700290022 621.8553052121194 28.58912475191314 Q 626.3424822168788 26.594821506807172 629.3339264910796 26.096245695530683 Q 632.5746772094705 25.099096721342242 636.5632836996824 25.348384626980483 Q 640.551869002978 25.597669884254195 644.2911902359162 26.594821506807172 Q 648.0305114688545 28.090548940636644 650.7726704857815 29.83556163173983 Q 653.7641147599822 31.580574322843006 654.0134212041723 31.82986487684579 Q 654.262706461446 32.079150134119494 657.0048654783731 30.084852185742612 Q 659.7470244953001 28.090548940636644 663.4863457282383 27.093397318083667 Q 667.2256669611766 25.597669884254195 668.9706849490088 25.597669884254195 Q 670.7156817499249 25.099096721342242 675.2028587546841 25.348384626980483 Q 679.6900569463598 25.597669884254195 683.180071735108 26.34553360116893 Q 686.4208224534989 27.093397318083667 691.1572847155319 29.586276374466117 Q 695.8937469775649 32.079150134119494 704.8681009870836 38.062054572708305 Q 713.8424549966023 44.044964308026195 717.083205714993 45.0421106338501 Q 720.0746499891939 46.53783806767957 722.8168301930373 46.53783806767957 Q 725.5589892099644 46.53783806767957 727.5532924550703 45.54068644512659 Q 729.5475957001763 44.543534822573605 730.5447367292711 43.54638849674971 Q 731.5418989452822 42.29994632019394 731.5418989452822 39.30849674926407 Q 731.5418989452822 36.31704188160513 730.5447367292711 34.57202919050195 Q 729.5475957001763 32.827016499398766 728.3011482268914 31.580574322843006 Q 727.0547219405229 30.583422700290022 726.0575597245117 30.084852185742612 Q 724.8111334381432 29.586276374466117 723.0661154503109 29.586276374466117 Q 721.5703827197524 29.586276374466117 720.5732416906576 30.334137443016317 Q 719.8253647319202 31.08199851156651 719.5760794746465 31.08199851156651 Z " fill-rule="evenodd" fill="rgb(214,0,116)"/></svg>