<?xml version="1.0" standalone="no"?><!-- Generator: Gravit.io --><svg xmlns="http://www.w3.org/2000/svg" xmlns:xlink="http://www.w3.org/1999/xlink" style="isolation:isolate" viewBox="572.9248061508895 128.2910345531058 172.34090281525027 148.7089697504866" width="172.34090281525027" height="148.7089697504866"><path d=" M 629.0341166080219 214.1006897213815 Q 629.0341166080219 227.84689873662487 637.1568625165618 236.17793321938348 Q 645.279629612018 244.50896770214212 657.7761813361559 244.50896770214212 Q 670.0644444860751 244.50896770214212 677.6665219263589 236.28206691303473 Q 685.2685993666427 228.05517671738545 685.2685993666427 214.1006897213815 L 685.2685993666427 128.2910345531058 L 723.3830778878801 128.2910345531058 L 723.3830778878801 214.1006897213815 Q 723.3830778878801 233.05379528834902 715.3644444860752 247.32069395876476 Q 707.3458322711865 261.5875820357224 692.4540996584889 269.2937931696574 Q 677.5623882327077 277.0000043035924 657.5678927619372 277.0000043035924 Q 637.573418478083 277.0000043035924 622.473418478083 269.2937931696574 Q 607.3734184780831 261.5875820357224 599.1465176889756 247.32069395876476 Q 590.9196274933264 233.05379528834902 590.9196274933264 214.1006897213815 L 590.9196274933264 128.2910345531058 L 629.0341166080219 128.2910345531058 L 629.0341166080219 214.1006897213815 Z " fill="rgb(0,113,214)"/><path d=" M 723.826964971438 177.0819985115665 L 723.5776797141641 177.0819985115665 L 723.5776797141641 177.33128906556928 L 723.3283944568905 177.33128906556928 L 723.3283944568905 177.33128906556928 L 723.3283944568905 177.580574322843 L 723.3283944568905 177.580574322843 L 723.3283944568905 177.580574322843 L 723.0791091996168 177.580574322843 L 723.0791091996168 177.580574322843 L 723.0791091996168 177.82986487684576 L 722.8298239423431 177.82986487684576 L 722.8298239423431 177.82986487684576 L 722.8298239423431 178.0791501341195 L 722.3312322408793 178.0791501341195 L 722.0819469836056 178.0791501341195 L 722.0819469836056 177.82986487684576 L 722.3312322408793 177.580574322843 L 722.3312322408793 177.33128906556928 L 722.3312322408793 177.0819985115665 L 722.5805174981531 177.0819985115665 L 722.5805174981531 177.0819985115665 L 722.5805174981531 176.8327132542928 L 722.8298239423431 176.8327132542928 L 722.8298239423431 176.8327132542928 L 722.8298239423431 176.58342270029001 L 722.8298239423431 176.58342270029001 L 722.8298239423431 176.58342270029001 L 723.0791091996168 176.3341374430163 L 723.3283944568905 176.0848521857426 L 723.3283944568905 176.0848521857426 L 723.3283944568905 176.0848521857426 L 723.3283944568905 175.8355616317398 Q 723.3283944568905 175.8355616317398 724.0762502287116 175.33698582046333 Q 724.574820743259 174.58912475191312 726.5691239883649 173.59197312936016 Q 728.563427233471 172.59482150680716 730.8070157358507 172.59482150680716 Q 733.299889495504 172.59482150680716 734.7956222260625 173.34268257535734 Q 736.5406402138948 174.09054894063664 738.5349434590007 175.5862763744661 Q 740.279961446833 177.0819985115665 742.0249794346653 179.32559231067523 Q 743.7699762355812 181.5691808130549 744.5178531943186 184.0620545727083 Q 745.2657089661398 186.80421888636445 745.2657089661398 189.5463884967497 Q 745.2657089661398 192.53783806767956 744.5178531943186 195.030717124062 Q 743.7699762355812 197.77288143771818 741.7756729904752 200.51504575137432 Q 740.279961446833 203.2572100650305 738.2856582017271 205.00222275613368 Q 736.291354956621 206.74724074396593 733.0506042382303 208.4922534350691 Q 729.8098747067559 210.486551383446 725.5719829592701 211.48370300599896 Q 721.3340912117845 212.97943043982843 716.3483436924778 213.47800625110494 Q 711.6118602435283 213.97658206238142 705.3796864378531 213.47800625110494 Q 698.8981850010715 213.47800625110494 691.9181342366587 211.98227881727547 Q 684.938083472246 210.486551383446 678.9551737369281 208.4922534350691 Q 672.9722640016103 206.49795018996315 668.4850869968509 204.00507113358069 Q 664.2471952493654 201.5121973739273 662.0036067469857 199.51789412882135 Q 659.5107329873323 197.52359088371537 659.0121624727849 197.27430562644167 Q 658.5135919582375 197.0250150724389 657.5164297422264 197.77288143771818 Q 656.7685739704052 198.52074250626836 653.5278232520144 201.01362156265083 Q 650.2870937205399 203.50650061903326 645.7999167157806 205.50079856741016 Q 641.3127397110212 207.4951018125161 635.0805447184296 209.4894050576221 Q 629.0976349831117 211.48370300599896 621.6190137041516 212.73014518255474 Q 614.1403712382752 213.97658206238142 609.1546237189684 214.22586731965515 Q 604.4181614569354 214.4751578736579 602.1745729545557 213.97658206238142 Q 599.9309844521761 213.97658206238142 595.1945010032267 212.73014518255474 Q 590.20875348392 211.48370300599896 586.7187281017136 209.98798086889857 Q 583.4779879767809 208.4922534350691 581.2343994744012 206.99652600123963 Q 578.9908109720216 205.00222275613368 577.2457929841894 202.758634253754 Q 575.2514897390834 200.26575519737156 574.2543381165303 197.27430562644167 Q 573.2571864939774 194.28285075878273 573.0079012367037 191.0421106338501 Q 572.75861597943 188.05066106292023 573.2571864939774 186.05635781781424 Q 573.7557676019829 184.31134512671107 574.752919224536 181.8184660703286 Q 576.2486413616364 179.32559231067523 576.9965077269156 178.57772594539597 Q 577.9936593494685 177.580574322843 577.9936593494685 177.33128906556928 Q 577.9936593494685 177.0819985115665 578.492229864016 176.8327132542928 Q 578.9908109720216 176.58342270029001 581.2343994744012 175.33698582046333 Q 583.4779879767809 174.09054894063664 586.220146993708 174.09054894063664 Q 589.211601861367 174.09054894063664 591.2059051064729 174.83841000918682 L 593.2001977581207 175.5862763744661 L 593.2001977581207 175.8355616317398 L 593.2001977581207 175.8355616317398 L 593.4494830153944 175.8355616317398 L 593.4494830153944 176.0848521857426 L 593.4494830153944 176.0848521857426 L 593.6987894595844 176.0848521857426 L 593.6987894595844 176.0848521857426 L 593.6987894595844 176.0848521857426 L 593.9480747168582 176.3341374430163 L 594.1973599741318 176.58342270029001 L 594.1973599741318 176.58342270029001 L 594.1973599741318 176.58342270029001 L 594.4466452314056 176.58342270029001 L 594.4466452314056 176.58342270029001 L 594.4466452314056 176.8327132542928 L 594.6959304886793 176.8327132542928 L 594.6959304886793 177.0819985115665 L 594.6959304886793 177.33128906556928 L 594.1973599741318 177.33128906556928 L 593.4494830153944 177.0819985115665 L 593.2001977581207 177.0819985115665 L 592.9509230943052 177.0819985115665 L 592.9509230943052 176.8327132542928 L 592.7016272435733 176.8327132542928 L 592.7016272435733 176.8327132542928 L 592.7016272435733 176.58342270029001 L 591.7044756210203 176.58342270029001 Q 590.9566198491992 176.0848521857426 588.9623166040933 176.3341374430163 Q 586.9680133589873 176.58342270029001 585.4722912218868 177.580574322843 Q 584.2258437486021 178.82701649939875 583.228692126049 180.57202919050195 Q 582.2315510969543 182.31704188160512 582.2315510969543 185.55778200653776 Q 582.2315510969543 189.0478126854732 583.228692126049 190.29424956529988 Q 583.9765584913283 191.54068644512657 585.2229953711551 192.28855281040586 Q 586.4694428444399 193.03641387895607 588.7130313468195 193.03641387895607 Q 591.2059051064729 193.03641387895607 594.6959304886793 191.54068644512657 Q 598.4352517216175 190.04496430802618 604.1688550127453 186.80421888636445 Q 610.1517647480632 183.5634787614318 615.8853892261075 180.07345337922544 Q 621.8682989614254 176.58342270029001 626.106190708911 174.58912475191312 Q 630.5933677136703 172.59482150680716 633.584811987871 172.09624569553068 Q 636.8255627062618 171.09909672134222 640.8141691964738 171.34838462698048 Q 644.8027544997694 171.59766988425417 648.5420757327076 172.59482150680716 Q 652.2813969656459 174.09054894063664 655.0235559825729 175.8355616317398 Q 658.0150002567738 177.580574322843 658.2643067009637 177.82986487684576 Q 658.5135919582375 178.0791501341195 661.2557509751646 176.0848521857426 Q 663.9979099920916 174.09054894063664 667.7372312250299 173.09339731808365 Q 671.4765524579681 171.59766988425417 673.2215704458004 171.59766988425417 Q 674.9665672467163 171.09909672134222 679.4537442514757 171.34838462698048 Q 683.9409424431512 171.59766988425417 687.4309572318995 172.3455336011689 Q 690.6717079502903 173.09339731808365 695.4081702123233 175.5862763744661 Q 700.1446324743563 178.0791501341195 709.118986483875 184.0620545727083 Q 718.0933404933937 190.04496430802618 721.3340912117845 191.0421106338501 Q 724.3255354859853 192.53783806767956 727.0677156898287 192.53783806767956 Q 729.8098747067559 192.53783806767956 731.8041779518617 191.54068644512657 Q 733.7984811969677 190.54353482257358 734.7956222260625 189.5463884967497 Q 735.7927844420738 188.29994632019392 735.7927844420738 185.30849674926407 Q 735.7927844420738 182.31704188160512 734.7956222260625 180.57202919050195 Q 733.7984811969677 178.82701649939875 732.5520337236828 177.580574322843 Q 731.3056074373144 176.58342270029001 730.3084452213031 176.0848521857426 Q 729.0620189349347 175.5862763744661 727.3170009471024 175.5862763744661 Q 725.8212682165438 175.5862763744661 724.824127187449 176.3341374430163 Q 724.0762502287116 177.0819985115665 723.826964971438 177.0819985115665 Z " fill-rule="evenodd" fill="rgb(214,0,116)"/></svg>